<?xml version="1.0" encoding="UTF-8"?>
<svg width="70px" height="70px" viewBox="0 0 70 70" version="1.1" xmlns="http://www.w3.org/2000/svg" xmlns:xlink="http://www.w3.org/1999/xlink">
    <title>Group 3</title>
    <g id="ROCK-PAPER-SCISSORS" stroke="none" stroke-width="1" fill="none" fill-rule="evenodd">
        <g id="ROUND2-PLAYER2W" transform="translate(-937.000000, -776.000000)" fill-rule="nonzero">
            <g id="Group-3" transform="translate(937.000000, 776.000000)">
                <circle id="Oval" fill="#ECF0F1" cx="34.5" cy="34.5" r="33.5"></circle>
                <path d="M35,46.9884895 L23.9226967,52.7951991 C22.6359677,53.4698005 21.1319827,52.3802183 21.3777562,50.9514809 L23.4934196,38.6524709 L14.5316419,29.9422691 C13.4905487,28.930573 14.0650305,27.1676256 15.5037147,26.9592424 L27.8885495,25.1648383 L33.4271323,13.9749165 C34.0706345,12.6750278 35.9293655,12.6750278 36.5728677,13.9749165 L42.1114505,25.1648383 L54.4962853,26.9592424 C55.9349695,27.1676256 56.5094513,28.930573 55.4683581,29.9422691 L46.5065804,38.6524709 L48.6222438,50.9514809 C48.8680173,52.3802183 47.36417,53.4696632 46.0773033,52.7951991 L35,46.9884895 Z" id="Path" fill="#E63946"></path>
                <path d="M59.7486914,10.2513086 C53.1382031,3.64054688 44.3488281,0 35,0 C25.6511719,0 16.8617969,3.64054688 10.2513086,10.2513086 C3.64082031,16.8620703 0,25.6511719 0,35 C0,44.3488281 3.64054688,53.1382031 10.2513086,59.7486914 C16.8620703,66.3591797 25.6511719,70 35,70 C44.3488281,70 53.1382031,66.3594531 59.7486914,59.7486914 C66.3591797,53.1379297 70,44.3488281 70,35 C70,25.6511719 66.3594531,16.8617969 59.7486914,10.2513086 Z M35,67.1428516 C17.2764648,67.1428516 2.85714844,52.7235352 2.85714844,35 C2.85714844,17.2764648 17.2764648,2.85714844 35,2.85714844 C52.7235352,2.85714844 67.1428516,17.2764648 67.1428516,35 C67.1428516,52.7235352 52.7235352,67.1428516 35,67.1428516 Z" id="Shape" fill="#231F20"></path>
                <path d="M57.112207,28.016543 C56.7366406,26.8608594 55.7563672,26.0343945 54.5539258,25.859668 L43.00625,24.1817187 L37.8421094,13.7178125 C37.3042578,12.6281641 36.215293,11.9512695 35.0001367,11.9512695 C33.7849805,11.9512695 32.6960156,12.6283008 32.1583008,13.7178125 L26.9940234,24.1817187 L15.4464844,25.859668 C14.2439062,26.0343945 13.2636328,26.8608594 12.8880664,28.016543 C12.5126367,29.1722266 12.8199805,30.4170508 13.6900586,31.2653906 L22.0458984,39.4104102 L20.0733203,50.9113281 C19.867832,52.1089844 20.3509961,53.2967969 21.3341406,54.0110156 C22.3171484,54.7253711 23.5961523,54.817793 24.6717187,54.2521875 L35,48.8222656 L45.328418,54.2523242 C45.7962695,54.4982812 46.3024023,54.6197279 46.8062109,54.6197279 C47.4605469,54.6197279 48.1105078,54.4146094 48.6661328,54.0111523 C49.6492773,53.2969336 50.1324414,52.1091211 49.9269531,50.9114648 L47.954375,39.4105469 L56.3102148,31.2655273 C57.1804297,30.4171875 57.4877734,29.1722266 57.112207,28.016543 Z M54.3158984,29.2195312 L45.422207,37.8888672 C45.0856055,38.2169922 44.9319336,38.6899023 45.0113672,39.1532422 L47.1108203,51.3943555 C47.1325586,51.5212305 47.0908594,51.6239062 46.9866797,51.6996484 C46.8825,51.7753906 46.7723047,51.7833203 46.6580078,51.7234375 L35.6648633,45.9439258 C35.4569141,45.8345508 35.228457,45.7797266 35.0001367,45.7797266 C34.7718164,45.7797266 34.5433594,45.8344141 34.3354102,45.9439258 L23.3421289,51.7234375 C23.2282422,51.7833203 23.1179102,51.7753906 23.013457,51.6996484 C22.9092773,51.6239062 22.8675781,51.5212305 22.8893164,51.3943555 L24.9889062,39.1532422 C25.0684766,38.6897656 24.9148047,38.2169922 24.5780664,37.8888672 L15.684375,29.2195312 C15.5920898,29.129707 15.5655664,29.0219727 15.6053516,28.8994727 C15.645,28.7771094 15.7299023,28.7056055 15.8573242,28.6870117 L28.1480664,26.9010547 C28.6133203,26.8335156 29.0156836,26.5412109 29.2236328,26.1195703 L34.7204102,14.9821875 C34.7774219,14.8667969 34.8714844,14.8082812 35.0002734,14.8082812 C35.1289258,14.8082812 35.2232617,14.8667969 35.2801367,14.9823242 L40.7766406,26.1195703 C40.9847266,26.5410742 41.3869531,26.8333789 41.852207,26.9010547 L54.1432227,28.6870117 C54.2706445,28.7056055 54.3552734,28.7769727 54.3950586,28.8994727 C54.434707,29.0219727 54.4080469,29.129707 54.3158984,29.2195312 Z" id="Shape" fill="#231F20"></path>
            </g>
        </g>
    </g>
</svg>